<svg xmlns="http://www.w3.org/2000/svg" width="105" height="146" viewBox="0 0 105 146">
  <mask id="a" fill="#fff">
    <path fill-rule="evenodd" d="m.00003089.50903116h77.62454491v95.56588624h-77.62454491z"/>
  </mask>
  <g fill="none" fill-rule="evenodd" transform="scale(-1 1) rotate(12 -44.861 -365.377)">
    <path fill="#fff" d="m34.6273822 90.3395037c-3.5426532 1.3138317-6.2934883 4.0382727-8.305293 7.1117003-2.0206027 3.096889-3.4605387 6.56036-4.4429798 10.13234-1.0410942 3.563182-1.6364242 7.255401-1.853441 10.965216-.1202391 1.853441-.1202391 3.721545.0117306 5.577919.1055757 1.859306.3753805 3.712747.8035488 5.539794-1.2346498-3.557316-1.5982997-7.378572-1.5367138-11.149973.0733165-3.777266.6862424-7.536936 1.6804141-11.188097 1.0762862-3.618903 2.5396835-7.176219 4.7479765-10.281906 1.1085454-1.5396465 2.3871852-2.9737172 3.8769764-4.1555792 1.4985892-1.1584006 3.1936667-2.0909865 5.0177812-2.5514141"/>
    <path fill="#58c6a4" d="m20.6371279 98.9113754c1.8094512-3.0763602 4.2670202-6.2113737 4.9239361-6.0500774.6569158.1671616 1.3460909 4.0910606 1.4927239 7.657175.1524983 3.780199-8.3346195 1.65402-6.41666-1.6070976"/>
    <path fill="#58c6a4" d="m76.4608963 48.5118549c-5.1849428 20.6869831-30.8897071 52.1778851-51.5766902 46.9958754-20.6869832-5.1790774-28.51718522-45.0749832-23.33517512-65.7590337 5.1820101-20.68405047 26.15052862-33.25343094 46.83751182-28.0743535 20.6840505 5.1820101 33.2563636 26.1505286 28.0743535 46.8375118" mask="url(#a)" transform="translate(0 .06)"/>
    <path fill="#499e81" fill-opacity=".5" d="m71.7325687 54.4173522c-5.1233569 17.6164882-28.743 43.7024983-45.6703131 38.7785623-16.92731318-4.923936 9.3522525-8.8976903 14.4756094-26.5141785s10.5106532-28.1212761 21.4172155-32.2592592c16.7161616-6.3433435 14.9008451 2.3754545 9.7774882 19.9948754"/>
    <g fill="#f5f7f8">
      <path d="m35.4968209 11.046194c-.0449675-.0064688-.0876867-.0126142-.1321763-.0206046-.5838175-.1014792-1.1719362-.1892635-1.7486174-.2610888-.0319552-.0030065-.0589357-.0068878-.0881646-.0110925-1.740243-.2503416-2.8798383-1.39555993-2.5570129-2.58804883.3335349-1.21162361 2.0541885-2.01377002 3.8422121-1.7883631.7215331.08948205 1.4530699.1994881 2.1775793.32438731 1.7658987.30333503 2.8321343 1.51752067 2.3844102 2.71112724-.4391219 1.16621668-2.1559744 1.88143738-3.8782304 1.63368328" opacity=".9" transform="rotate(-12 35.197 8.717)"/>
      <path d="m15.0976311 21.6321769c-.0342904-.0058841-.0647872-.0125639-.0987131-.0198321-1.3448842-.2756224-2.1596644-1.3803523-1.8165346-2.4657749 1.6189086-5.1413627 9.4416378-9.17333086 14.7103407-8.8681587 1.385982.0786966 2.4255036 1.0512862 2.3266715 2.1685026-.0995609 1.1199846-1.3029637 1.9608624-2.6885813 1.8807817-3.1009602-.1805746-8.5231841 2.7992973-9.4740962 5.8187605-.3365701 1.0605085-1.6440538 1.7113748-2.959087 1.4857209" opacity=".9" transform="rotate(-12 21.665 15.97)"/>
    </g>
  </g>
</svg>
