<svg height="138" viewBox="0 0 64 138" width="64" xmlns="http://www.w3.org/2000/svg" xmlns:xlink="http://www.w3.org/1999/xlink"><mask id="a" fill="#fff"><path d="m0 .783h63.513v76.797h-63.513z" fill="#fff" fill-rule="evenodd"/></mask><g fill="none" fill-rule="evenodd" transform="matrix(-1 0 0 1 64 0)"><path d="m24.8337954 73.3403495c-2.5257142.5851428-4.736 2.1074286-6.4617142 3.9908571-1.744 1.8857143-3.0971429 4.1028572-4.176 6.4251429-2.1531429 4.6514286-3.3554286 9.7531428-3.4788572 14.864-.0365714 2.5485715.2011429 5.1268575 1.0217143 7.5154285.4228571 1.177143 1.0011429 2.313143 1.8377143 3.218286.8251428.912 1.9222857 1.538285 3.12 1.76 1.2045714.208 2.4662857.073143 3.6617143-.288 1.2-.356572 2.352-.896 3.456-1.522286 2.1988571-1.234286 4.2285714-2.907429 5.2571428-5.174857.5142857-1.117714.7565715-2.356572.64-3.572572-.112-1.2068567-.5782857-2.4022852-1.3897143-3.2845709-.7862857-.8914286-1.9931428-1.4194286-3.1108571-1.1131429-1.1222857.2925714-2 1.2662857-2.5965714 2.3337143-.6034286 1.0857143-.9988572 2.2971425-1.2845715 3.5314285-.288 1.234286-.4617142 2.502857-.5714285 3.773714-.1074286 1.273143-.1485715 2.553143-.1462857 3.835429.0091428 1.28-.0022858 2.598857-.1211429 3.890286-.2285714 2.592-.7862857 5.163428-1.7257143 7.590857-.9325714 2.432-2.2445714 4.713143-3.8491428 6.752-1.6114286 2.038857-3.5062858 3.828571-5.52685718 5.435428-1.00342857.813715-2.05714286 1.561143-3.04685715 2.381715-.24228571.210285-.48457142.425142-.68114285.674285-.096.125715-.18514286.262857-.208.413715-.02742857.150857.05257143.301714.17828571.395428.52571429.361143 1.20228572.434286 1.824.550857-.62857143-.102857-1.296-.153143-1.85371428-.516571-.13485715-.093714-.23542858-.265143-.20571429-.438857.02285714-.169143.11428571-.315429.21028571-.445715.19657143-.262857.43428572-.484571.67657143-.701714.97371429-.850286 2.00685715-1.622857 2.98742857-2.457143 1.97485713-1.650285 3.80800003-3.472 5.34857143-5.52 1.5542857-2.038857 2.8114286-4.294857 3.6937143-6.692571.8891428-2.397714 1.4057143-4.921143 1.5931428-7.467429.1005715-1.28.0937143-2.544.0685715-3.842285-.0091429-1.293715.0251428-2.596572.128-3.892572.1074285-1.296.2788571-2.592.5691428-3.872.2902857-1.273143.6902857-2.5417141 1.3417143-3.7165712.6377143-1.1474286 1.6045714-2.2948572 3.0194286-2.6788572.6925714-.192 1.4537143-.1371428 2.1142857.1165715.6674286.2514285 1.2457143.6788571 1.712 1.1885714.9371429 1.0194286 1.4582857 2.3565714 1.5931429 3.7051425.1348571 1.355429-.128 2.733715-.6925715 3.956572-1.1382857 2.477714-3.3257143 4.230857-5.5885714 5.492571-1.1428571.637714-2.3405714 1.197714-3.616 1.570286-1.2708571.372571-2.64.528-3.984.285714-1.3417143-.251428-2.5897143-.973714-3.4902857-1.984-.9142857-.998857-1.52-2.214857-1.9611429-3.456-.8548571-2.505143-1.056-5.152-.9828571-7.7439998.1988571-5.2 1.4811428-10.336 3.7257143-15.0102857 1.1497143-2.32 2.5691428-4.528 4.3748571-6.3931429 1.7874286-1.8605714 4.0594286-3.3394285 6.5965714-3.8628571" fill="#eae9f0"/><path d="m13.0109714 79.6909781c1.6822857-2.3565715 3.8971429-4.7177143 4.416-4.5371429.5188572.1805714.7931429 3.4034286.656 6.2971429-.1462857 3.0674285-6.8571428.7405714-5.072-1.76" fill="#dc7452"/><path d="m61.7721143 42.4192c-5.6754286 16.3565714-28.7314286 39.9748571-45.088 34.2994286-16.35657144-5.68-19.81942859-38.5028572-14.1417143-54.8571429 5.67542857-16.35657141 23.5382857-25.01257141 39.8948571-19.33714284 16.3542858 5.67771428 25.0125715 23.53828574 19.3348572 39.89485714" fill="#f87851" mask="url(#a)" transform="translate(0 .575)"/><path d="m57.5286857 47.3805781c-5.4102857 13.8788571-26.384 33.2777142-39.7211428 28.0777142-13.33485719-5.1977142 8.2034285-6.5211428 13.6137142-20.4022857 5.4102858-13.8788571 10.5234286-21.9862857 19.6388572-24.5485714 13.9748571-3.9268571 11.8788571 2.9942857 6.4685714 16.8731429" fill="#cc584e"/><path d="m38.9896283 16.7257872c-.0914544 0-.1829087-.0060336-.2757921-.0181007-.3858231-.0527935-.7745042-.0920116-1.1574693-.1176541-1.1760461-.0769277-2.0705841-1.1478822-1.9962774-2.3892843.0714487-1.2414022 1.0931655-2.181127 2.2634956-2.1087245.4758485.0316761.9574129.0799445 1.4346904.1448051 1.1703301.159889 1.9962774 1.2896706 1.8448061 2.5235308-.1371815 1.1358151-1.0574411 1.9654277-2.1134533 1.9654277m-17.0048467 9.2753623c-.0925536 0-.1880453-.0056329-.2835371-.018307-1.2031961-.1478644-2.050869-1.2012218-1.895144-2.3559719.7330828-5.4526738 6.9855891-10.3899348 11.5912298-10.6082107 1.201727-.0619622 2.2418526.8378979 2.3006167 1.998281.0602333 1.1603831-.8741168 2.1489618-2.0846584 2.2066993-2.7104967.1267409-7.0252549 3.7388557-7.4557023 6.9425832-.141034 1.0603986-1.0856678 1.8349261-2.1728047 1.8349261" fill="#f5f7f8" opacity=".9"/></g></svg>