<svg height="1.70833in" viewBox="0 0 171.74965 122.99975" width="2.38541in" xmlns="http://www.w3.org/2000/svg"><path d="m89.81817 91.87386 6.25883 13.13992c.96747 2.12214.40166 3.3258-2.81807 3.3258h-32.20724c-3.21972 0-3.78553-1.20366-2.81807-3.3258l6.25886-13.13992" fill="#f47852"/><path d="m89.81817 91.87386 6.25883 13.13992c.96747 2.12214.40166 3.3258-2.81807 3.3258h-32.20724c-3.21972 0-3.78553-1.20366-2.81807-3.3258l6.25886-13.13992" fill="none" stroke="#464d60" stroke-miterlimit="10"/><path d="m122.34329 91.87385h-94.84963a7.23177 7.23177 0 0 1 -7.21057-7.21057v-62.52386a7.23176 7.23176 0 0 1 7.21057-7.21056h97.53541a7.23176 7.23176 0 0 1 7.21057 7.21056v32.63758" fill="#fff" stroke="#464d60" stroke-miterlimit="10"/><rect fill="#fff" height="53.95866" rx="2.65308" width="25.19749" x="122.76416" y="54.77698"/><path d="m147.65734 103.76644v3.929a.98917.98917 0 0 1 -.9214 1.04025h-22.757a.98917.98917 0 0 1 -.9214-1.04025v-3.929" fill="#f47852" fill-rule="evenodd"/><g fill="none" stroke="#464d60" stroke-linecap="round" stroke-miterlimit="10"><path d="m53.04749 38.85128-.01474-6.59306"/><path d="m53.0682 32.22074 6.5929.07853"/><path d="m53.25402 32.62648 8.83722 8.83723"/><path d="m99.47524 38.85128.01473-6.59306"/><path d="m99.45453 32.22074-6.5929.07853"/><path d="m99.26871 32.62648-8.83722 8.83723"/><path d="m53.04749 65.88561-.01474 6.59306"/><path d="m53.0682 72.51615 6.5929-.07853"/><path d="m53.25402 72.11041 8.83722-8.83722"/><path d="m99.47524 65.88561.01473 6.59306"/><path d="m99.45453 72.51615-6.5929-.07853"/><path d="m99.26871 72.11041-8.83722-8.83722"/><g stroke-width=".7"><path d="m128.61594 76.76404-.00742-3.31812"/><path d="m128.62636 73.42706 3.31804.03952"/><path d="m128.71988 73.63126 4.44755 4.44755"/><path d="m142.85521 76.76404.00741-3.31812"/><path d="m142.84478 73.42706-3.31804.03952"/><path d="m142.75127 73.63126-4.44755 4.44755"/><path d="m128.61594 87.32752-.00742 3.31812"/><path d="m128.62636 90.6645 3.31804-.03952"/><path d="m128.71988 90.4603 4.44755-4.44755"/><path d="m142.85521 87.32752.00741 3.31812"/><path d="m142.84478 90.6645-3.31804-.03952"/><path d="m142.75127 90.4603-4.44755-4.44755"/></g></g><path d="m141.67436 54.777v1.78573a.47419.47419 0 0 1 -.4728.4728h-11.67731a.47419.47419 0 0 1 -.4728-.4728v-1.78573" fill="#f47852" fill-rule="evenodd"/><g fill="none" stroke="#464d60" stroke-miterlimit="10"><path d="m141.67436 54.777v1.78573a.47419.47419 0 0 1 -.4728.4728h-11.67731a.47419.47419 0 0 1 -.4728-.4728v-1.78573"/><path d="m122.76416 103.4044h25.19749" stroke-width=".89412"/><rect height="53.95866" rx="2.65308" width="25.19749" x="122.76416" y="54.77698"/></g></svg>