<svg height="1.70833in" viewBox="0 0 171.74965 122.99975" width="2.38541in" xmlns="http://www.w3.org/2000/svg"><path d="m97.72963 92.20236 6.28454 13.19384c.97144 2.13084.40331 3.33944-2.82963 3.33944h-32.33944c-3.23294 0-3.80107-1.2086-2.82963-3.33944l6.28453-13.19384" fill="#f47852"/><rect fill="#fff" height="77.26075" rx="7.24014" stroke="#464d60" stroke-miterlimit="10" width="112.41593" x="28.80685" y="14.94161"/><g fill="#464d60"><path d="m52.56424 26.415h5.355a5.66954 5.66954 0 0 1 2.57227.54687 4.00965 4.00965 0 0 1 1.68359 1.54151 4.49934 4.49934 0 0 1 .59424 2.35156v.021a4.37394 4.37394 0 0 1 -.86767 2.73535 4.26516 4.26516 0 0 1 -2.3833 1.53613l3.68263 6.44926h-1.67289l-3.49311-6.22852a.90476.90476 0 0 1 -.15235.01075h-3.88774v6.21777h-1.43067zm5.23926 7.691a3.6729 3.6729 0 0 0 2.57227-.8418 3.03232 3.03232 0 0 0 .9209-2.35693v-.021a2.97667 2.97667 0 0 0 -.94727-2.34627 3.78851 3.78851 0 0 0 -2.60889-.84131h-3.7456v6.40731z"/><path d="m66.76053 41.44922a.94525.94525 0 0 1 -.28369-.69434.92857.92857 0 0 1 .28369-.689.95553.95553 0 0 1 .69483-.27881.95235.95235 0 0 1 .96777.96777.95441.95441 0 0 1 -.27881.69434.92715.92715 0 0 1 -.689.28418.94489.94489 0 0 1 -.69479-.28414z"/><path d="m74.67118 41.32324a4.64992 4.64992 0 0 1 -1.94629-1.4624 4.07952 4.07952 0 0 1 -.81543-2.22022l-.01025-.147h1.43066l.021.147a2.82245 2.82245 0 0 0 .65234 1.52051 3.53 3.53 0 0 0 1.4624.99951 5.86337 5.86337 0 0 0 2.11475.35254 5.53789 5.53789 0 0 0 2.06738-.35254 3.08745 3.08745 0 0 0 1.36768-1.01025 2.49287 2.49287 0 0 0 .48925-1.53076v-.01025a2.24582 2.24582 0 0 0 -.76806-1.78321 5.9021 5.9021 0 0 0 -2.5249-1.06787l-1.6626-.36865a6.90039 6.90039 0 0 1 -3.23487-1.48828 3.42346 3.42346 0 0 1 -1.03662-2.604v-.01074a3.62993 3.62993 0 0 1 .67334-2.13574 4.42763 4.42763 0 0 1 1.83057-1.45166 6.42023 6.42023 0 0 1 2.66211-.52637 6.16827 6.16827 0 0 1 2.61963.53125 4.65012 4.65012 0 0 1 1.83594 1.47315 4.10161 4.10161 0 0 1 .77294 2.19384l.01075.147h-1.43067l-.01074-.13672a3.09694 3.09694 0 0 0 -.61523-1.53614 3.27943 3.27943 0 0 0 -1.32032-.99414 4.76747 4.76747 0 0 0 -1.894-.35253 4.96438 4.96438 0 0 0 -1.92529.34716 2.99831 2.99831 0 0 0 -1.28858.96289 2.3407 2.3407 0 0 0 -.458 1.436v.021a2.17451 2.17451 0 0 0 .76806 1.72022 5.62222 5.62222 0 0 0 2.41987 1.04687l1.66211.36817a7.15585 7.15585 0 0 1 3.34572 1.49412 3.47886 3.47886 0 0 1 1.0205 2.65088v.01074a3.87657 3.87657 0 0 1 -.668 2.26709 4.2963 4.2963 0 0 1 -1.89356 1.48877 8.12046 8.12046 0 0 1 -5.72363.01074z"/><path d="m86.7161 41.44922a.94521.94521 0 0 1 -.28369-.69434.92853.92853 0 0 1 .28369-.689.95551.95551 0 0 1 .69482-.27881.95235.95235 0 0 1 .96778.96777.95441.95441 0 0 1 -.27881.69434.92717.92717 0 0 1 -.689.28418.94487.94487 0 0 1 -.69479-.28414z"/><path d="m89.18241 26.415h1.51465l4.86084 13.4351h.042l4.86083-13.4351h1.50439l-5.68112 15.18168h-1.42044z"/><path d="m103.06278 41.44922a.94521.94521 0 0 1 -.28369-.69434.92853.92853 0 0 1 .28369-.689.95551.95551 0 0 1 .69482-.27881.95235.95235 0 0 1 .96778.96777.95441.95441 0 0 1 -.27881.69434.92717.92717 0 0 1 -.689.28418.94487.94487 0 0 1 -.69479-.28414z"/><path d="m108.93778 26.415h1.43066v15.18168h-1.43066zm.71533 8.1748h4.11377a3.90653 3.90653 0 0 0 2.751-.91552 3.25966 3.25966 0 0 0 .99414-2.52491v-.021a3.24453 3.24453 0 0 0 -.99414-2.52 3.92234 3.92234 0 0 0 -2.751-.90967h-4.11377v-1.2837h4.43994a5.32951 5.32951 0 0 1 2.5459.584 4.27847 4.27847 0 0 1 1.71484 1.64649 4.80981 4.80981 0 0 1 .62061 2.47217v.021a4.8379 4.8379 0 0 1 -.62061 2.478 4.33945 4.33945 0 0 1 -1.71484 1.66211 5.24909 5.24909 0 0 1 -2.5459.59473h-4.43994z"/></g><path d="m97.72963 92.20236 6.28454 13.19384c.97144 2.13084.40331 3.33944-2.82963 3.33944h-32.33944c-3.23294 0-3.80107-1.2086-2.82963-3.33944l6.28453-13.19384" fill="none" stroke="#464d60" stroke-miterlimit="10"/><path d="m109.7164 52.61493h-17.25854a3.36443 3.36443 0 0 0 -3.36448 3.36456v17.25851a3.36443 3.36443 0 0 0 3.36448 3.36456h17.25854a3.36464 3.36464 0 0 0 3.36449-3.36456v-17.25851a3.36464 3.36464 0 0 0 -3.36449-3.36456z" fill="#f47852"/><path d="m77.69815 52.61493h-17.25854a3.36443 3.36443 0 0 0 -3.36449 3.36456v17.25851a3.36443 3.36443 0 0 0 3.36449 3.36456h17.25854a3.36464 3.36464 0 0 0 3.36448-3.36456v-17.25851a3.36464 3.36464 0 0 0 -3.36448-3.36456z" fill="#f47852"/><g fill="none" stroke-miterlimit="10"><path d="m109.7164 52.61511h-17.25854a3.36443 3.36443 0 0 0 -3.36448 3.36457v17.25854a3.36443 3.36443 0 0 0 3.36448 3.36457h17.25854a3.36464 3.36464 0 0 0 3.36449-3.36457v-17.25854a3.36464 3.36464 0 0 0 -3.36449-3.36457z" stroke="#464c69"/><path d="m77.88676 52.61511h-17.25854a3.36444 3.36444 0 0 0 -3.36449 3.36457v17.25854a3.36444 3.36444 0 0 0 3.36449 3.36457h17.25854a3.36464 3.36464 0 0 0 3.36449-3.36457v-17.25854a3.36464 3.36464 0 0 0 -3.36449-3.36457z" stroke="#464c69"/><g stroke="#fff" stroke-linecap="round" stroke-width=".89778"><path d="m93.77419 66.73489 4.79354 3.89085"/><path d="m108.40008 58.51224-9.83143 12.11237"/><path d="m74.01734 58.51224-10.62513 13.09021"/><path d="m63.39221 58.51224 10.62513 13.09021"/></g></g></svg>