<svg height="1.70833in" viewBox="0 0 171.74965 122.99975" width="2.38541in" xmlns="http://www.w3.org/2000/svg"><g fill-rule="evenodd"><path d="m72.96271 86.76221v20.08069a2.341 2.341 0 0 1 -2.33409 2.33409h-39.65723a2.341 2.341 0 0 1 -2.33409-2.33409v-90.25157a2.341 2.341 0 0 1 2.33409-2.33409h39.65723a2.341 2.341 0 0 1 2.33409 2.33409v13.42551" fill="#fff"/><g fill="#f47852"><path d="m61.90278 14.25724v3.14126a.83444.83444 0 0 1 -.83208.83176h-20.5414a.83445.83445 0 0 1 -.83209-.83176v-3.14126"/><path d="m72.96271 100.43558v6.91149a1.75645 1.75645 0 0 1 -1.66023 1.82992h-41.00494a1.75646 1.75646 0 0 1 -1.66024-1.82992v-6.91149"/></g></g><path d="m72.96271 86.76221v20.08069a2.341 2.341 0 0 1 -2.33409 2.33409h-39.65723a2.341 2.341 0 0 1 -2.33409-2.33409v-90.25157a2.341 2.341 0 0 1 2.33409-2.33409h39.65723a2.341 2.341 0 0 1 2.33409 2.33409v13.42551" fill="none" stroke="#464d60" stroke-miterlimit="10"/><path d="m28.6373 100.43558h44.32541" fill="none" stroke="#464d60" stroke-miterlimit="10"/><path d="m137.49735 24.12758h-67.88863a7.8333 7.8333 0 0 0 -7.8333 7.8333v14.05489l-14.43942 8.98223a2.6207 2.6207 0 0 0 .13056 4.5172l14.30883 7.83331v17.8932a7.8333 7.8333 0 0 0 7.8333 7.83331h67.88863a7.83331 7.83331 0 0 0 7.83331-7.83331v-53.28083a7.8333 7.8333 0 0 0 -7.83328-7.8333z" fill="#f47852"/><path d="m61.90278 14.25724v3.14126a.83444.83444 0 0 1 -.83208.83176h-20.5414a.83445.83445 0 0 1 -.83209-.83176v-3.14126" fill="none" stroke="#464d60" stroke-miterlimit="10"/><path d="m137.49735 24.12758h-67.88863a7.8333 7.8333 0 0 0 -7.8333 7.8333v14.05489l-14.43942 8.98223a2.6207 2.6207 0 0 0 .13056 4.5172l14.30883 7.83331v17.8932a7.8333 7.8333 0 0 0 7.8333 7.83331h67.88863a7.83331 7.83331 0 0 0 7.83331-7.83331v-53.28083a7.8333 7.8333 0 0 0 -7.83328-7.8333z" fill="none" stroke="#464d60" stroke-miterlimit="10"/><g fill="#fff"><path d="m79.26206 50.89648-3.6084-5.79348h1.44483l2.77685 4.56738h.04248l2.77686-4.56738h1.44482l-3.60888 5.79345v4.377h-1.26856z"/><path d="m87.33775 54.80127a4.23363 4.23363 0 0 1 -1.62452-1.81836 6.33109 6.33109 0 0 1 -.57128-2.791v-.01416a6.27692 6.27692 0 0 1 .5747-2.78759 4.25732 4.25732 0 0 1 1.62793-1.81446 5.15156 5.15156 0 0 1 4.97949 0 4.24561 4.24561 0 0 1 1.6211 1.81446 6.31793 6.31793 0 0 1 .5708 2.78759v.01416a6.33786 6.33786 0 0 1 -.5708 2.791 4.253 4.253 0 0 1 -1.61768 1.81836 5.17492 5.17492 0 0 1 -4.98974 0zm4.30615-1.03272a3.24313 3.24313 0 0 0 1.1665-1.41992 5.25757 5.25757 0 0 0 .40869-2.15674v-.01416a5.23564 5.23564 0 0 0 -.41211-2.16357 3.244 3.244 0 0 0 -5.95214-.00342 5.18832 5.18832 0 0 0 -.416 2.167v.01416a5.19555 5.19555 0 0 0 .416 2.16358 3.26042 3.26042 0 0 0 1.17675 1.417 3.50048 3.50048 0 0 0 3.61231-.00391z"/><path d="m98.98325 54.97021a3.35786 3.35786 0 0 1 -1.3916-1.31445 3.82534 3.82534 0 0 1 -.48633-1.94873v-6.60403h1.26856v6.51953a2.60547 2.60547 0 0 0 .72949 1.91015 3.19833 3.19833 0 0 0 4.09131 0 2.62771 2.62771 0 0 0 .71875-1.91015v-6.51953h1.26857v6.604a3.84814 3.84814 0 0 1 -.48242 1.94873 3.34135 3.34135 0 0 1 -1.38525 1.31445 5.202 5.202 0 0 1 -4.33106 0z"/><path d="m108.39829 45.103h1.28271l-1.0288 3.4468h-.874z"/><path d="m112.2772 45.103h3.813a3.67278 3.67278 0 0 1 1.709.37744 2.74862 2.74862 0 0 1 1.13135 1.05713 3.08293 3.08293 0 0 1 .40137 1.59619v.01424a3.08736 3.08736 0 0 1 -.5459 1.8291 2.83194 2.83194 0 0 1 -1.498 1.07471l2.354 4.22168h-1.48682l-2.1778-4.02449h-2.43165v4.02442h-1.26855zm3.7002 5.02539a2.1047 2.1047 0 0 0 1.51171-.50733 1.90291 1.90291 0 0 0 .53223-1.44482v-.01416a1.82628 1.82628 0 0 0 -.56055-1.42041 2.201 2.201 0 0 0 -1.54-.51074h-2.375v3.89746z"/><path d="m121.9354 45.103h6.30078v1.14209h-5.03218v3.26321h4.77148v1.12744h-4.77148v3.4961h5.03222v1.1416h-6.30082z"/><path d="m73.40171 60.0459h1.26856v10.17041h-1.26856z"/><path d="m77.65415 60.0459h1.2334l6.67432 9.57861-1.60694-1.55078h.564v-8.02783h1.25439v10.17041h-1.23342l-6.67432-9.57813 1.60693 1.5503h-.564v8.02783h-1.2544z"/><path d="m87.94712 60.0459h1.332l3.03076 8.64795h.02784l3.03076-8.64795h1.332l-3.74948 10.17041h-1.2544z"/><path d="m98.87388 60.0459h1.26855v10.17041h-1.26855z"/><path d="m105.69859 61.188h-3.20659v-1.1421h7.68213v1.1421h-3.207v9.02832h-1.26855z"/><path d="m112.52378 60.0459h6.30078v1.1421h-5.03222v3.26318h4.77148v1.12744h-4.77148v3.4961h5.03222v1.1416h-6.30078z"/><path d="m121.50572 60.0459h3.418a5.1838 5.1838 0 0 1 2.57959.603 4.03506 4.03506 0 0 1 1.646 1.73339 5.97747 5.97747 0 0 1 .57422 2.73145v.01416a6.07278 6.07278 0 0 1 -.5708 2.74121 4.00573 4.00573 0 0 1 -1.64209 1.74463 5.19984 5.19984 0 0 1 -2.58692.60254h-3.418zm3.33349 9.02881a3.87879 3.87879 0 0 0 1.95606-.4585 2.94991 2.94991 0 0 0 1.21582-1.33545 4.974 4.974 0 0 0 .41552-2.13916v-.01367a5.01707 5.01707 0 0 0 -.41552-2.1499 2.92794 2.92794 0 0 0 -1.21582-1.33545 3.90408 3.90408 0 0 0 -1.95606-.45459h-2.06494v7.88672z"/><path d="m132.67857 70.0542a.82192.82192 0 1 1 .57129.23242.77712.77712 0 0 1 -.57129-.23242zm-.06348-10.0083h1.269l-.085 6.79443h-1.09912z"/></g><g fill="none" stroke="#fff" stroke-linecap="round" stroke-miterlimit="10"><path d="m94.86791 32.9828 2.91004 3.82196"/><path d="m102.79587 29.83474-.00001 6.76086"/><path d="m107.27694 36.80476 2.91004-3.82196"/><path d="m94.86791 82.50038 2.91004-3.82196"/><path d="m102.79587 85.64844-.00001-6.76086"/><path d="m107.27694 78.67842 2.91004 3.82196"/></g></svg>