<svg height="1.70833in" viewBox="0 0 171.74965 122.99975" width="2.38541in" xmlns="http://www.w3.org/2000/svg" xmlns:xlink="http://www.w3.org/1999/xlink"><clipPath id="a"><path d="m27.11629 15.37289h113.768a6.15188 6.15188 0 0 1 6.15188 6.15188v77.68123a6.172 6.172 0 0 1 -6.172 6.172h-113.74788a6.15188 6.15188 0 0 1 -6.15188-6.15188v-77.70135a6.15188 6.15188 0 0 1 6.15188-6.15188z"/></clipPath><path d="m20.84118 15.31268h126.195a0 0 0 0 1 0 0v90.04516a.02017.02017 0 0 1 -.02017.02017h-126.17483a0 0 0 0 1 0 0v-90.06533a0 0 0 0 1 0 0z" fill="#fff"/><g fill="#f47852"><path d="m20.498 89.14 24.505-27.412 48.302 43.859-72.464-.209z" fill-rule="evenodd"/><path d="m70.071 83.28 29.609-33.702 7.597 8.202 5.716-5.451 6.059 5.524 7.14-9.925 20.827 18.737v38.713l-53.714.209z" fill-rule="evenodd"/><circle cx="45.96451" cy="38.35328" r="10.34231"/></g><g fill="none" stroke="#464d60" stroke-miterlimit="10"><circle cx="45.96451" cy="38.35328" r="10.34231"/><g clip-path="url(#a)"><path d="m14.08 96.657 31.216-34.919 50.97 46.144"/><path d="m69.518 83.666 42.502-48.036 37.7 33.43"/><path d="m99.68 49.578 7.818 8.44 5.495-5.689 6.24 5.689 6.959-10.09"/></g><path d="m20.84118 15.31268h126.195a0 0 0 0 1 0 0v90.04516a.02017.02017 0 0 1 -.02017.02017h-126.17483a0 0 0 0 1 0 0v-90.06533a0 0 0 0 1 0 0z"/></g><g fill="#464d60"><path d="m18.31205 12.72053h5.30471v5.30471h-5.30471z"/><path d="m81.93243 12.72053h5.30471v5.30471h-5.30471z"/><path d="m144.38423 12.72053h5.30471v5.30471h-5.30471z"/><path d="m18.31205 102.71448h5.30471v5.30471h-5.30471z"/><path d="m81.93243 102.71448h5.30471v5.30471h-5.30471z"/><path d="m144.38423 102.71448h5.30471v5.30471h-5.30471z"/><path d="m18.31205 58.42431h5.30471v5.30471h-5.30471z"/><path d="m144.38423 58.42431h5.30471v5.30471h-5.30471z"/></g><g fill="none" stroke="#464d60" stroke-linecap="round" stroke-miterlimit="10" stroke-width=".5"><path d="m63.3986 15.31231v90.06531" stroke-dasharray="1.04561 1.04657"/><path d="m105.04343 15.31231v90.06531" stroke-dasharray="1.04561 1.04657"/><path d="m147.03661 61.07666h-.60327"/><path d="m145.37835 61.07666h-122.11463" stroke-dasharray="1.21615 1.055"/><path d="m22.7362 61.07666h-.60321"/></g></svg>