
<svg xmlns="http://www.w3.org/2000/svg" width="157" height="329">
  <mask id="a" fill="#fff">
    <path fill-rule="evenodd" d="M0 .027h2.864v11.456H0z"/>
  </mask>
  <mask id="b" fill="#fff">
    <path fill-rule="evenodd" d="M0 .053h2.864v22.821H0z"/>
  </mask>
  <mask id="c" fill="#fff">
    <path fill-rule="evenodd" d="M0 .368h2.864V23.74H0z"/>
  </mask>
  <mask id="d" fill="#fff">
    <path fill-rule="evenodd" d="M.403.171h2.864v28.348H.403z"/>
  </mask>
  <g fill="none" fill-rule="evenodd">
    <rect width="150" height="325" x="3" y="2" stroke="#1f222c" strokeWidth="2.5" rx="13"/>
    <path fill="#1f222c" d="M115.974 1.237H38.42V3.19h1.924c1.126 0 2.048.921 2.048 2.048v5.374a5.515 5.515 0 0 0 5.515 5.514h62.552a5.515 5.515 0 0 0 5.515-5.514v-5.27c0-1.025.766-1.87 1.753-2.016l3.42-.032V1.237z"/>
    <path fill="#fefefe" d="M92.09 8.968a1.266 1.266 0 1 1-2.513.306 1.266 1.266 0 0 1 2.514-.306m-8.805 1.014H68.16a.77.77 0 0 1-.768-.769.77.77 0 0 1 .768-.768h15.126a.77.77 0 0 1 .768.768.77.77 0 0 1-.768.769" opacity=".1"/>
    <g fill="#1f222c">
      <path d="M1.67 11.483h-.477A1.197 1.197 0 0 1 0 10.29V1.22C0 .564.537.027 1.193.027h.477c.657 0 1.194.537 1.194 1.193v9.07c0 .656-.537 1.193-1.194 1.193" mask="url(#a)" transform="translate(0 53.433)"/>
      <path d="M1.67 22.874h-.477A1.198 1.198 0 0 1 0 21.68V1.247C0 .59.537.053 1.193.053h.477c.657 0 1.194.537 1.194 1.194V21.68c0 .656-.537 1.194-1.194 1.194" mask="url(#b)" transform="translate(0 75.702)"/>
      <path d="M1.67 23.74h-.477A1.198 1.198 0 0 1 0 22.546V1.562C0 .905.537.368 1.193.368h.477c.657 0 1.194.537 1.194 1.194v20.984c0 .657-.537 1.194-1.194 1.194" mask="url(#c)" transform="translate(0 104.693)"/>
      <path d="M2.074 28.52h-.477a1.197 1.197 0 0 1-1.194-1.194V1.366C.403.707.941.17 1.597.17h.477c.656 0 1.193.537 1.193 1.194v25.96c0 .657-.537 1.194-1.193 1.194" mask="url(#d)" transform="translate(152.639 86.206)"/>
    </g>
  </g>
</svg>