<svg height="438" viewBox="0 0 680 438" width="680" xmlns="http://www.w3.org/2000/svg"><g fill="none" fill-rule="evenodd" transform="translate(0 .801)"><path d="m671.87568 22.8539493c1.794925 0 3.419925.7275373 4.596194 1.9038059s1.903806 2.8012686 1.903806 4.5961941v405.4999997h-676.87568v-405.4999997c0-1.7949255.72753728-3.4199255 1.90380592-4.5961941s2.80126864-1.9038059 4.59619408-1.9038059z" stroke="#1f222c" strokeWidth="3" transform="matrix(1 0 0 -1 0 457.708)"/><path d="m8 .19852975h663.87568c4.418278 0 8 3.581722 8 8v15.82741865h-679.87568v-15.82741865c0-4.418278 3.581722-8 8-8z" fill="#1f222c"/><g fill="#fff" opacity=".1"><circle cx="14.694" cy="11.78" r="2.78"/><circle cx="26.607" cy="11.78" r="2.78"/><circle cx="38.521" cy="11.78" r="2.78"/></g></g></svg>