<svg height="613" viewBox="0 0 159 613" width="159" xmlns="http://www.w3.org/2000/svg" xmlns:xlink="http://www.w3.org/1999/xlink"><linearGradient id="a" x1="50%" x2="50%" y1="4.379027%" y2="96.781572%"><stop offset="0" stop-color="#587884"/><stop offset=".27972028" stop-color="#62728c"/><stop offset=".65034965" stop-color="#515970"/><stop offset="1" stop-color="#4f4b6b"/></linearGradient><g fill="none" fill-rule="evenodd" transform="translate(.884337 .271856)"><path d="m139.515707 576.70498c9.664983 0 17.5 7.835017 17.5 17.5s-7.835017 17.5-17.5 17.5h-121.9999999c-9.66498307 0-17.49999995-7.835017-17.49999995-17.5s7.83501688-17.5 17.49999995-17.5zm0-58c9.664983 0 17.5 7.835017 17.5 17.5s-7.835017 17.5-17.5 17.5h-121.9999999c-9.66498307 0-17.49999995-7.835017-17.49999995-17.5s7.83501688-17.5 17.49999995-17.5zm0-56c9.664983 0 17.5 7.835017 17.5 17.5s-7.835017 17.5-17.5 17.5h-121.9999999c-9.66498307 0-17.49999995-7.835017-17.49999995-17.5s7.83501688-17.5 17.49999995-17.5zm0-57c9.664983 0 17.5 7.835017 17.5 17.5s-7.835017 17.5-17.5 17.5h-121.9999999c-9.66498307 0-17.49999995-7.835017-17.49999995-17.5s7.83501688-17.5 17.49999995-17.5zm0-58c9.664983 0 17.5 7.835017 17.5 17.5s-7.835017 17.5-17.5 17.5h-121.9999999c-9.66498307 0-17.49999995-7.835017-17.49999995-17.5s7.83501688-17.5 17.49999995-17.5zm0-57c9.664983 0 17.5 7.835017 17.5 17.5s-7.835017 17.5-17.5 17.5h-121.9999999c-9.66498307 0-17.49999995-7.835017-17.49999995-17.5s7.83501688-17.5 17.49999995-17.5zm0-58c9.664983 0 17.5 7.835017 17.5 17.5s-7.835017 17.5-17.5 17.5h-121.9999999c-9.66498307 0-17.49999995-7.835017-17.49999995-17.5s7.83501688-17.5 17.49999995-17.5zm0-58c9.664983 0 17.5 7.835017 17.5 17.5s-7.835017 17.5-17.5 17.5h-121.9999999c-9.66498307 0-17.49999995-7.835017-17.49999995-17.5s7.83501688-17.5 17.49999995-17.5zm0-58c9.664983 0 17.5 7.835017 17.5 17.5s-7.835017 17.5-17.5 17.5h-121.9999999c-9.66498307 0-17.49999995-7.835017-17.49999995-17.5s7.83501688-17.5 17.49999995-17.5zm0-58.0000003c9.664983 0 17.5 7.8350168 17.5 17.5 0 9.6649831-7.835017 17.5-17.5 17.5h-121.9999999c-9.66498307 0-17.49999995-7.8350169-17.49999995-17.5 0-9.6649832 7.83501688-17.5 17.49999995-17.5zm0-58.00000004c9.664983 0 17.5 7.83501687 17.5 17.50000004 0 9.6649831-7.835017 17.5-17.5 17.5h-121.9999999c-9.66498307 0-17.49999995-7.8350169-17.49999995-17.5 0-9.66498317 7.83501688-17.50000004 17.49999995-17.50000004z" fill="url(#a)"/><g fill="#fff" font-family="Oxygen-Bold, Oxygen" font-size="11" font-weight="bold" letter-spacing="1.2"><text><tspan x="46" y="598">SEASONAL</tspan></text><text><tspan x="46" y="540">PET PARTY</tspan></text><text><tspan x="34" y="484">JUST BECAUSE</tspan></text><text><tspan x="33" y="427">BABY SHOWER</tspan></text><text><tspan x="63" y="369">LOVE</tspan></text><text><tspan x="48" y="312">BUSINESS</tspan></text><text><tspan x="46" y="254">NIGHTLIFE</tspan></text><text><tspan x="26" y="196">COCKTAIL PARTY</tspan></text><text><tspan x="33" y="138">DINNER PARTY</tspan></text><text><tspan x="29" y="80">KID’S BIRTHDAY</tspan></text><text><tspan x="25" y="22">ADULT BIRTHDAY</tspan></text></g></g></svg>